<mxfile host="app.diagrams.net" modified="2023-03-31T06:34:53.446Z" agent="Mozilla/5.0 (Macintosh; Intel Mac OS X 10_15_7) AppleWebKit/537.36 (KHTML, like Gecko) Chrome/111.0.0.0 Safari/537.36" version="21.1.2" etag="-rEyPBuLb51NWAqR1r5o" type="github">
  <diagram name="第 1 页" id="5MbfJHzXgwYUwcxd9TJH">
    <mxGraphModel>
      <root>
        <mxCell id="0" />
        <mxCell id="1" parent="0" />
      </root>
    </mxGraphModel>
  </diagram>
</mxfile>
